<?xml version="1.0" standalone="no"?>
<!DOCTYPE svg PUBLIC "-//W3C//DTD SVG 20010904//EN"
 "http://www.w3.org/TR/2001/REC-SVG-20010904/DTD/svg10.dtd">
<svg version="1.0" xmlns="http://www.w3.org/2000/svg"
 width="700.000000pt" height="700.000000pt" viewBox="0 0 700.000000 700.000000"
 preserveAspectRatio="xMidYMid meet">
<metadata>
Created by potrace 1.14, written by Peter Selinger 2001-2017
</metadata>
<g transform="translate(0.000000,700.000000) scale(0.100000,-0.100000)"
fill="#000000" stroke="none">
<path d="M3906 6013 c-1 -1 -420 -4 -930 -5 l-927 -3 -19 -25 c-11 -14 -20
-28 -20 -31 0 -4 -30 -58 -66 -120 -37 -63 -78 -134 -92 -159 -13 -25 -28 -49
-32 -55 -4 -5 -20 -32 -35 -60 -27 -49 -90 -160 -110 -193 -5 -10 -39 -69 -74
-132 -36 -63 -67 -117 -70 -120 -4 -3 -13 -18 -21 -35 -8 -16 -32 -58 -52 -93
-21 -34 -38 -67 -38 -72 0 -6 -4 -10 -9 -10 -5 0 -11 -8 -14 -17 -3 -10 -22
-45 -41 -78 -20 -33 -39 -67 -43 -75 -4 -8 -19 -35 -34 -60 -15 -25 -38 -64
-51 -86 -49 -88 -320 -560 -329 -574 -5 -8 -74 -128 -153 -267 l-144 -252 18
-34 c10 -19 92 -160 181 -313 90 -153 171 -295 182 -314 10 -19 26 -47 35 -62
44 -69 152 -262 152 -269 0 -5 5 -9 10 -9 6 0 10 -6 11 -12 0 -7 13 -33 29
-58 16 -25 41 -67 55 -95 15 -27 32 -57 39 -65 11 -15 17 -25 61 -104 13 -23
57 -99 99 -170 42 -70 76 -129 76 -131 0 -2 18 -33 40 -69 22 -36 40 -68 40
-71 0 -3 5 -11 10 -18 16 -18 130 -219 130 -229 0 -4 5 -8 10 -8 6 0 10 -4 10
-9 0 -4 19 -41 43 -80 44 -75 75 -129 141 -247 22 -38 44 -71 48 -72 4 -2 6
-7 3 -12 -3 -4 2 -13 10 -20 8 -7 15 -19 15 -27 0 -13 187 -14 1456 -9 801 2
1457 6 1459 8 2 3 57 99 103 178 11 19 45 80 77 135 31 55 71 125 88 155 16
30 34 58 39 61 5 3 10 10 10 15 0 10 42 87 69 126 11 15 19 30 19 33 0 5 71
132 110 195 40 67 197 342 209 368 8 17 19 32 23 32 4 0 8 5 8 10 0 14 132
244 142 248 5 2 8 8 8 13 0 5 98 179 217 387 119 207 226 395 238 417 12 22
36 62 52 89 27 43 30 52 18 70 -14 23 -291 500 -322 556 -11 19 -57 97 -102
174 -44 76 -81 141 -81 144 0 3 -6 13 -14 21 -7 9 -27 41 -44 73 -26 49 -107
188 -149 255 -7 13 -14 26 -14 30 0 5 -6 15 -13 23 -7 8 -31 46 -52 84 -21 37
-51 89 -66 115 -16 25 -36 61 -45 79 -9 17 -20 32 -25 32 -4 0 -8 8 -8 17 0 9
-6 24 -13 32 -12 14 -82 132 -162 275 -71 124 -316 544 -327 560 -14 18 -35
19 -532 20 -285 1 -519 0 -520 -1z"/>
</g>
</svg>
